# xmcd
#
# Track frame offsets: 
#        150
#        18683
#        43603
#        62038
#        87580
#        104910
#        122688
#        142610
#        165215
#        178830
#        198513
#        216748
#        228728
#        241303
#
# Disc length: 3614 seconds
#
# Revision: 0
# Processed by: cddbd v1.4PL0 Copyright (c) Steve Scherf et al.
# Submitted via: ExactAudioCopy v0.90b4
#
DISCID=cf0e1c0e
DTITLE=Blue Blot - Yo Yo Man
DYEAR=1994
DGENRE=Blues
TTITLE0=Yo Yo Man
TTITLE1=Gone Love You My Own Way
TTITLE2=How Could I Know
TTITLE3=Nothing Like A Woman
TTITLE4=Damn You Woman
TTITLE5=So Thankful For Your Love
TTITLE6=You Can't Get That Stuff No More
TTITLE7=Angel
TTITLE8=Put Some Rhythm In My Blues
TTITLE9=With You In Mind
TTITLE10=Closing In On The Fire
TTITLE11=W.H.Y. (W.H.O.)
TTITLE12=Joe and Emily
TTITLE13=Stone Junky
EXTD=
EXTT0=
EXTT1=
EXTT2=
EXTT3=
EXTT4=
EXTT5=
EXTT6=
EXTT7=
EXTT8=
EXTT9=
EXTT10=
EXTT11=
EXTT12=
EXTT13=
PLAYORDER=
